<svg version="1.1" id="Layer_1" xmlns="http://www.w3.org/2000/svg" xmlns:xlink="http://www.w3.org/1999/xlink" x="0px" y="0px"
	 viewBox="0 0 358.2 113.7" style="enable-background:new 0 0 358.2 113.7;" xml:space="preserve">
<style type="text/css">
	.st0{fill:#ffffff;}
</style>
<g>
	<path class="st0" d="M119.9,61c-10.1,0-18.3-8.2-18.3-18.3s8.2-18.3,18.3-18.3s18.3,8.2,18.3,18.3C138.2,52.8,130,61,119.9,61
		 M119.9,13.3c-16.2,0-29.3,13.2-29.3,29.3c0,16.2,13.2,29.3,29.3,29.3c16.2,0,29.3-13.2,29.3-29.3C149.2,26.5,136,13.3,119.9,13.3"
		/>
	<path class="st0" d="M60.2,13.3c-7,0-13.2,3.1-17.4,8.1c-4.2-4.9-10.5-8.1-17.4-8.1c-12.6,0-22.9,10.3-22.9,22.9v34.9h11V36.2
		c0-6.6,5.3-11.9,11.9-11.9s11.9,5.3,11.9,11.9v34.9h11V36.2c0-6.6,5.3-11.9,11.9-11.9s11.9,5.3,11.9,11.9v34.9h11V36.2
		C83.2,23.6,72.9,13.3,60.2,13.3"/>
	<path class="st0" d="M215.2,61c-10.1,0-18.3-8.2-18.3-18.3s8.2-18.3,18.3-18.3s18.3,8.2,18.3,18.3C233.6,52.8,225.4,61,215.2,61
		 M215.2,13.3c-16.2,0-29.3,13.2-29.3,29.3c0,16.2,13.2,29.3,29.3,29.3c16.2,0,29.3-13.2,29.3-29.3
		C244.6,26.5,231.4,13.3,215.2,13.3"/>
	<path class="st0" d="M179.5,72c-12.6,0-22.9-10.3-22.9-22.9V0h11v14.2h14.2v11h-14.2V49c0,6.6,5.3,11.9,11.9,11.9h2.3v11L179.5,72
		L179.5,72z"/>
	<path class="st0" d="M288.2,64.7c-12.1,0-22-9.9-22-22s9.9-22,22-22s22,9.9,22,22S300.3,64.7,288.2,64.7 M310.2,14.2v9.1
		c-5.4-6.1-13.3-10-22-10c-16.2,0-29.3,13.2-29.3,29.3c0,16.2,13.2,29.3,29.3,29.3c8.8,0,16.6-3.9,22-10V70c0,12.1-9.9,22-22,22
		c-6.7,0-12.8-3-16.8-7.8l-5.2,5.2c5.4,6.1,13.2,10,22,10c16.2,0,29.3-13.2,29.3-29.3V14.2H310.2z"/>
	<path class="st0" d="M12.3,89.4H7.1v9.2h5.2c3.4,0,5.5-1.9,5.5-4.6C17.8,91,15.7,89.4,12.3,89.4 M12.2,102.7H7.1v8.3H2.5V85.3h10.1
		c6,0,9.8,3.4,9.8,8.6C22.4,99.7,17.8,102.7,12.2,102.7"/>
</g>
<polygon class="st0" points="26.1,85.3 30.7,85.3 30.7,106.9 44.2,106.9 44.2,111 26.1,111 "/>
<g>
	<path class="st0" d="M68.8,99.9c0,7.7-4.3,11.5-11,11.5s-10.9-3.9-10.9-11.3V85.3h4.5v14.6c0,4.8,2.5,7.3,6.5,7.3s6.5-2.4,6.5-7.2
		V85.3h4.5L68.8,99.9L68.8,99.9z"/>
	<path class="st0" d="M84,96.1c5.4,1.3,8.3,3.3,8.3,7.6c0,4.8-3.8,7.7-9.2,7.7c-3.9,0-7.6-1.4-10.7-4.1L75,104
		c2.5,2.1,4.9,3.3,8.1,3.3c2.8,0,4.5-1.3,4.5-3.3c0-1.9-1-2.9-5.8-4c-5.5-1.3-8.5-2.9-8.5-7.7c0-4.5,3.7-7.5,8.8-7.5
		c3.7,0,6.7,1.1,9.3,3.2L89,91.6c-2.3-1.7-4.6-2.6-7-2.6c-2.6,0-4.2,1.4-4.2,3.1C77.9,94,79,94.9,84,96.1"/>
</g>
<path class="st0" d="M341.2,21.1L329,32.4h12.2V21.1z M346,14.2v18.2h4.1v4.1H346v6.6h-4.8v-6.6h-16.8v-5l17.3-17.3
	C341.7,14.2,346,14.2,346,14.2z"/>
</svg>
